<svg id="Group_808" data-name="Group 808" xmlns="http://www.w3.org/2000/svg" xmlns:xlink="http://www.w3.org/1999/xlink" width="102.099" height="102.005" viewBox="0 0 102.099 102.005">
  <defs>
    <clipPath id="clip-path">
      <rect id="Rectangle_380" data-name="Rectangle 380" width="102.099" height="102.005" fill="none"/>
    </clipPath>
  </defs>
  <g id="Group_807" data-name="Group 807" clip-path="url(#clip-path)">
    <path id="Path_375" data-name="Path 375" d="M0,67.439V65.046c.109-.267.234-.529.325-.8A6.448,6.448,0,0,1,4.264,60.03a1.151,1.151,0,0,0,.87-1.3c-.025-7.341-.015-14.682-.018-22.023,0-.321-.034-.642-.051-.947a17.542,17.542,0,0,1-1.89-.5A5.569,5.569,0,0,1,0,31.544V29.549a2.164,2.164,0,0,0,.183-.338,5.1,5.1,0,0,1,5.035-3.776c1.029-.031,2.06-.007,3.09-.007H9.953c.287-2.663.346-5.174.856-7.59,1.538-7.3,5.659-12.494,12.887-14.9a29.948,29.948,0,0,1,14.682-.777c3.918.671,7.778,1.685,11.67,2.514a2.564,2.564,0,0,0,1.425-.049A62.5,62.5,0,0,1,70.576.109a17.724,17.724,0,0,1,7.681.719c2.678.995,3.407,3.281,1.654,5.537a15.229,15.229,0,0,1-3.158,3c-2.181,1.556-4.487,2.937-6.763,4.406.634.426,1.32.887,2.005,1.349,6.566,4.437,12.4,9.592,16.331,16.622a1.277,1.277,0,0,0,.944.491c1.827.047,3.655.016,5.483.025,1.687.009,2.221.534,2.228,2.193.01,2.127-.035,4.255.031,6.38a2.36,2.36,0,0,0,.611,1.445,14.086,14.086,0,0,1,4.284,8.67c.242,2.7.158,5.44.188,8.162.016,1.445-.6,2.051-2.061,2.079-.985.019-1.971,0-3.051,0,0,1.441.036,2.9-.015,4.354a1.133,1.133,0,0,0,.873,1.295,6.724,6.724,0,0,1,.05,12.491,1.2,1.2,0,0,0-.926,1.35c.031,6.281.019,12.562.017,18.843,0,2.032-.441,2.482-2.434,2.482q-43.518,0-87.037,0c-1.936,0-2.393-.463-2.393-2.422q0-12.811.013-25.623A1.253,1.253,0,0,0,4.2,72.51,6.352,6.352,0,0,1,.337,68.354c-.1-.308-.224-.61-.337-.915M77.45,4.3l-.166-.479a30.621,30.621,0,0,0-3.609-.365,54.164,54.164,0,0,0-21.562,4.61,3.315,3.315,0,0,1-1.9.164C48.4,7.855,46.608,7.354,44.8,6.906a47.964,47.964,0,0,0-15.27-1.718c-8.082.613-13.805,5.393-15.35,13.336a64.634,64.634,0,0,0-.612,8.421c-.08,1.332-.561,1.858-1.908,1.885-1.329.027-2.659,0-3.988.009-.9,0-1.8-.029-2.69.041A1.646,1.646,0,0,0,3.407,30.5,1.685,1.685,0,0,0,5,32.224a9.3,9.3,0,0,0,1.095.029q16.152,0,32.3-.015a2.791,2.791,0,0,1,2.563,1.335,16.563,16.563,0,0,0,10.16,6.864,14.162,14.162,0,0,0,5.324.409c-.093-.213-.133-.338-.2-.448-1.055-1.805-2.174-3.577-3.13-5.434a2.694,2.694,0,0,1-.031-1.938c.263-.725,1.041-.838,1.79-.724.985.149,1.973.276,2.955.441A101.617,101.617,0,0,1,83.9,40.817,1.717,1.717,0,0,1,85.074,42.6a1.679,1.679,0,0,1-1.458,1.546,6.29,6.29,0,0,0-4.844,4.895c-.769,2.8-.46,5.672-.425,8.521,0,.047.087.092.133.139a7.545,7.545,0,0,0,4.5-1.354,8.368,8.368,0,0,0,3.788-6.778c.077-1.538,1.225-2.4,2.431-1.832a1.885,1.885,0,0,1,1,1.8,8.3,8.3,0,0,0,5.369,7.6,20.231,20.231,0,0,0,3.138.751c0-1.8,0-3.319,0-4.843a11.471,11.471,0,0,0-3.01-7.812A7.413,7.413,0,0,0,90.76,42.5c-1.668-.154-1.928-.325-2.422-1.973a35.833,35.833,0,0,0-9.513-15.546A73.613,73.613,0,0,0,66.217,15.44c-.2-.123-.4-.24-.591-.37-1.359-.921-1.277-2.336.152-3.158,2.961-1.7,5.941-3.377,8.845-5.175A22.888,22.888,0,0,0,77.45,4.3M23.658,57.78a1.586,1.586,0,0,0,.137-.378q.019-1.894.022-3.787c0-2.249.419-2.661,2.694-2.661H74.883l.7-3.431H64.73V44.143c3.7,0,7.321-.094,10.933.045a3.5,3.5,0,0,0,3.324-1.757,93.658,93.658,0,0,0-21.161-6.279c.637,1.208,1.3,2.286,1.791,3.435,1.092,2.545-.153,4.586-2.932,4.705-7.23.311-13.274-2.162-17.85-7.881a1.79,1.79,0,0,0-1.578-.762q-13.807.034-27.613.017c-.35,0-.7.03-1.04.046V52.727h6.664V56.1H8.525c0,.971.044,1.835-.014,2.693a1.057,1.057,0,0,0,.82,1.224A6.718,6.718,0,0,1,12.676,69.7a7,7,0,0,1-4.07,3.145v3.667h8.338v3.395H8.576v7.056c1.758-3.074,3.781-4.172,6.335-3.5a5.1,5.1,0,0,1,.15,9.834c-2.555.747-4.608-.311-6.449-3.357v8.59H23.761V71.388h-6.7v-3.4h6.672v-6.8c-.95,0-1.814.036-2.67-.025-.227-.016-.6-.32-.617-.513-.066-.917-.029-1.841-.029-2.871ZM52.775,98.54H74.8V87.622l-5.324,5.391L66.931,90.6c.243-.262.457-.508.687-.738,2.183-2.187,4.354-4.386,6.562-6.547a2.1,2.1,0,0,0,.7-1.647c-.025-5.316-.013-10.632-.016-15.948,0-.35-.033-.7-.055-1.123-2.359,0-4.614-.041-6.866.03a2.508,2.508,0,0,0-1.533.652c-2.737,2.665-5.428,5.379-8.113,8.1a4.74,4.74,0,0,0-.613.951L54.9,71.674l7.124-7h-9.2V87.583l10.432-10.5,2.618,2.545a9.527,9.527,0,0,0-.982.765Q59.143,86.123,53.412,91.88c-.248.249-.6.563-.608.856-.055,1.915-.028,3.832-.028,5.8M49.287,67.333l-.268-.176L35.337,80.878l-2.6-2.476L46.5,64.665H27.333V96.121l12.2-12.264,2.572,2.5L29.819,98.537H49.287Zm44.239,12.54H83.448V76.466h5.878c-.077-.234-.109-.358-.157-.474-1.637-3.987-.131-7.607,3.834-9.315a1.137,1.137,0,0,0,.548-.841c.052-1.726.037-3.454.014-5.182,0-.266-.084-.677-.262-.772a13.018,13.018,0,0,1-4.816-4.454,10.565,10.565,0,0,1-4.335,4.147c-1.814.82-3.773,1.319-5.784,2v4.718h6.657v3.4H78.347V83.338h3.348c0,.941-.033,1.736.01,2.525.036.643-.175.9-.843.863-.818-.047-1.641-.011-2.5-.011v11.8H93.509v-7c-1.561,2.974-3.666,4.162-6.161,3.57a5.1,5.1,0,0,1-.37-9.855c2.583-.787,4.61.247,6.549,3.4ZM49.338,54.425h-22.1c0,1.944.038,3.832-.017,5.717-.024.821.216,1.074,1.054,1.067,4.684-.038,9.369-.018,14.053-.018,2.06,0,4.12.021,6.179-.025.282-.006.794-.333.8-.523.058-2.051.036-4.105.036-6.217m25.476.005H52.834v6.683h21.98ZM10.189,66.29a3.392,3.392,0,0,0-3.4-3.417A3.443,3.443,0,0,0,3.4,66.321,3.38,3.38,0,0,0,6.77,69.662a3.342,3.342,0,0,0,3.419-3.372M95.326,76.469A3.38,3.38,0,0,0,98.7,73.033a3.447,3.447,0,0,0-3.384-3.356,3.406,3.406,0,0,0-3.4,3.415,3.34,3.34,0,0,0,3.414,3.378M90.343,35.715c.731,3.169,1.173,3.684,3.17,3.763V35.715ZM90.162,90.1a1.7,1.7,0,0,0-1.71-1.693,1.754,1.754,0,0,0-1.668,1.661,1.707,1.707,0,0,0,1.687,1.72A1.644,1.644,0,0,0,90.162,90.1M15.316,88.389a1.685,1.685,0,0,0-1.743-1.653,1.628,1.628,0,0,0-1.632,1.738A1.694,1.694,0,0,0,13.609,90.1a1.746,1.746,0,0,0,1.707-1.716" transform="translate(0 0.001)" fill="#34a7df"/>
    <path id="Path_376" data-name="Path 376" d="M93.608,76.173a8.5,8.5,0,1,1,8.551-8.434,8.521,8.521,0,0,1-8.551,8.434M88.93,65.984h4.644V69.41H88.969a4.915,4.915,0,0,0,5.439,3.306A5.076,5.076,0,0,0,94.567,62.7a4.958,4.958,0,0,0-5.637,3.289" transform="translate(-68.118 -47.344)" fill="#34a7df"/>
    <rect id="Rectangle_377" data-name="Rectangle 377" width="3.265" height="3.283" transform="translate(63.057 20.419)" fill="#34a7df"/>
    <rect id="Rectangle_378" data-name="Rectangle 378" width="3.268" height="3.27" transform="translate(56.237 25.519)" fill="#34a7df"/>
    <path id="Path_377" data-name="Path 377" d="M59.734,200.624a5.095,5.095,0,0,1,10.189.086,5.148,5.148,0,0,1-5.1,5.069,5.094,5.094,0,0,1-5.09-5.155m6.785.08a1.7,1.7,0,0,0-1.69-1.713,1.637,1.637,0,0,0-1.689,1.588,1.707,1.707,0,0,0,1.614,1.789,1.753,1.753,0,0,0,1.765-1.663" transform="translate(-47.798 -156.505)" fill="#34a7df"/>
    <rect id="Rectangle_379" data-name="Rectangle 379" width="10.095" height="3.266" transform="translate(25.578 42.553)" fill="#34a7df"/>
    <path id="Path_378" data-name="Path 378" d="M330.174,352.028l2.159,2.264-3.258,3.23-2.184-2.186,3.283-3.308" transform="translate(-261.575 -281.69)" fill="#34a7df"/>
    <path id="Path_379" data-name="Path 379" d="M211.088,386.82l2.205,2.125-3.316,3.232L207.808,390l3.28-3.183" transform="translate(-166.286 -309.53)" fill="#34a7df"/>
  </g>
</svg>
